<svg id="bigCart" width="620" height="620" viewBox="0 0 620 620" fill="none" xmlns="http://www.w3.org/2000/svg">
<path d="M232.5 568.333C246.768 568.333 258.334 556.767 258.334 542.5C258.334 528.232 246.768 516.667 232.5 516.667C218.233 516.667 206.667 528.232 206.667 542.5C206.667 556.767 218.233 568.333 232.5 568.333Z" stroke="#FFA6A6" stroke-width="15" stroke-linecap="round" stroke-linejoin="round"/>
<path d="M516.666 568.333C530.934 568.333 542.5 556.767 542.5 542.5C542.5 528.232 530.934 516.667 516.666 516.667C502.399 516.667 490.833 528.232 490.833 542.5C490.833 556.767 502.399 568.333 516.666 568.333Z" stroke="#FFA6A6" stroke-width="15" stroke-linecap="round" stroke-linejoin="round"/>
<path d="M25.833 25.8334H129.166L198.4 371.742C200.762 383.635 207.232 394.319 216.678 401.923C226.124 409.526 237.943 413.566 250.066 413.333H501.166C513.29 413.566 525.109 409.526 534.555 401.923C544 394.319 550.471 383.635 552.833 371.742L594.166 155H155" stroke="#FFA6A6" stroke-width="15" stroke-linecap="round" stroke-linejoin="round"/>
</svg>
