<svg id="heart" width="48" height="48" viewBox="0 0 48 48" fill="none" xmlns="http://www.w3.org/2000/svg">
<path id="Vector" d="M43.453 5.06673C42.329 3.77746 40.9945 2.75472 39.5256 2.05693C38.0568 1.35915 36.4825 1 34.8925 1C33.3026 1 31.7282 1.35915 30.2594 2.05693C28.7906 2.75472 27.4561 3.77746 26.3321 5.06673L23.9994 7.74118L21.6667 5.06673C19.3964 2.46371 16.3171 1.00135 13.1063 1.00135C9.89551 1.00135 6.81622 2.46371 4.54585 5.06673C2.27548 7.66976 1 11.2002 1 14.8814C1 18.5627 2.27548 22.0931 4.54585 24.6961L6.87852 27.3706L23.9994 47L41.1203 27.3706L43.453 24.6961C44.5775 23.4075 45.4695 21.8774 46.0781 20.1934C46.6867 18.5093 47 16.7043 47 14.8814C47 13.0586 46.6867 11.2535 46.0781 9.5695C45.4695 7.88546 44.5775 6.3554 43.453 5.06673V5.06673Z" stroke="#FFA6A6" stroke-width="2" stroke-linecap="round" stroke-linejoin="round"/>
</svg>
