<svg id="inst" xmlns="http://www.w3.org/2000/svg" width="70" height="70" viewBox="0 0 70 70" fill="none">
  <rect x="4.375" y="4.375" width="61.25" height="61.25" rx="6" fill="url(#paint0_radial_115_184)"/>
  <rect x="4.375" y="4.375" width="61.25" height="61.25" rx="6" fill="url(#paint1_radial_115_184)"/>
  <rect x="4.375" y="4.375" width="61.25" height="61.25" rx="6" fill="url(#paint2_radial_115_184)"/>
  <path d="M50.3125 22.9688C50.3125 24.7809 48.8434 26.25 47.0312 26.25C45.2191 26.25 43.75 24.7809 43.75 22.9688C43.75 21.1566 45.2191 19.6875 47.0312 19.6875C48.8434 19.6875 50.3125 21.1566 50.3125 22.9688Z" fill="white"/>
  <path fill-rule="evenodd" clip-rule="evenodd" d="M35 45.9375C41.0406 45.9375 45.9375 41.0406 45.9375 35C45.9375 28.9594 41.0406 24.0625 35 24.0625C28.9594 24.0625 24.0625 28.9594 24.0625 35C24.0625 41.0406 28.9594 45.9375 35 45.9375ZM35 41.5625C38.6244 41.5625 41.5625 38.6244 41.5625 35C41.5625 31.3756 38.6244 28.4375 35 28.4375C31.3756 28.4375 28.4375 31.3756 28.4375 35C28.4375 38.6244 31.3756 41.5625 35 41.5625Z" fill="white"/>
  <path fill-rule="evenodd" clip-rule="evenodd" d="M13.125 34.125C13.125 26.7743 13.125 23.099 14.5555 20.2914C15.8139 17.8217 17.8217 15.8139 20.2914 14.5555C23.099 13.125 26.7743 13.125 34.125 13.125H35.875C43.2257 13.125 46.901 13.125 49.7086 14.5555C52.1782 15.8139 54.1861 17.8217 55.4445 20.2914C56.875 23.099 56.875 26.7743 56.875 34.125V35.875C56.875 43.2257 56.875 46.901 55.4445 49.7086C54.1861 52.1782 52.1782 54.1861 49.7086 55.4445C46.901 56.875 43.2257 56.875 35.875 56.875H34.125C26.7743 56.875 23.099 56.875 20.2914 55.4445C17.8217 54.1861 15.8139 52.1782 14.5555 49.7086C13.125 46.901 13.125 43.2257 13.125 35.875V34.125ZM34.125 17.5H35.875C39.6225 17.5 42.1701 17.5034 44.1392 17.6643C46.0573 17.821 47.0382 18.1051 47.7224 18.4537C49.3688 19.2926 50.7074 20.6312 51.5463 22.2776C51.895 22.9618 52.179 23.9427 52.3357 25.8608C52.4966 27.8299 52.5 30.3775 52.5 34.125V35.875C52.5 39.6225 52.4966 42.1701 52.3357 44.1392C52.179 46.0573 51.895 47.0382 51.5463 47.7224C50.7074 49.3688 49.3688 50.7074 47.7224 51.5463C47.0382 51.895 46.0573 52.179 44.1392 52.3357C42.1701 52.4966 39.6225 52.5 35.875 52.5H34.125C30.3775 52.5 27.8299 52.4966 25.8608 52.3357C23.9427 52.179 22.9618 51.895 22.2776 51.5463C20.6312 50.7074 19.2926 49.3688 18.4537 47.7224C18.1051 47.0382 17.821 46.0573 17.6643 44.1392C17.5034 42.1701 17.5 39.6225 17.5 35.875V34.125C17.5 30.3775 17.5034 27.8299 17.6643 25.8608C17.821 23.9427 18.1051 22.9618 18.4537 22.2776C19.2926 20.6312 20.6312 19.2926 22.2776 18.4537C22.9618 18.1051 23.9427 17.821 25.8608 17.6643C27.8299 17.5034 30.3775 17.5 34.125 17.5Z" fill="white"/>
  <defs>
    <radialGradient id="paint0_radial_115_184" cx="0" cy="0" r="1" gradientUnits="userSpaceOnUse" gradientTransform="translate(26.25 50.3125) rotate(-55.3758) scale(55.8241)">
      <stop stop-color="#B13589"/>
      <stop offset="0.79309" stop-color="#C62F94"/>
      <stop offset="1" stop-color="#8A3AC8"/>
    </radialGradient>
    <radialGradient id="paint1_radial_115_184" cx="0" cy="0" r="1" gradientUnits="userSpaceOnUse" gradientTransform="translate(24.0625 67.8125) rotate(-65.1363) scale(49.4249)">
      <stop stop-color="#E0E8B7"/>
      <stop offset="0.444662" stop-color="#FB8A2E"/>
      <stop offset="0.71474" stop-color="#E2425C"/>
      <stop offset="1" stop-color="#E2425C" stop-opacity="0"/>
    </radialGradient>
    <radialGradient id="paint2_radial_115_184" cx="0" cy="0" r="1" gradientUnits="userSpaceOnUse" gradientTransform="translate(1.09375 6.5625) rotate(-8.1301) scale(85.0738 18.1964)">
      <stop offset="0.156701" stop-color="#406ADC"/>
      <stop offset="0.467799" stop-color="#6A45BE"/>
      <stop offset="1" stop-color="#6A45BE" stop-opacity="0"/>
    </radialGradient>
  </defs>
</svg>
