<svg id="cart" width="44" height="44" viewBox="0 0 44 44" fill="none" xmlns="http://www.w3.org/2000/svg">
<path d="M16.4998 40.3333C17.5124 40.3333 18.3332 39.5125 18.3332 38.5C18.3332 37.4874 17.5124 36.6666 16.4998 36.6666C15.4873 36.6666 14.6665 37.4874 14.6665 38.5C14.6665 39.5125 15.4873 40.3333 16.4998 40.3333Z" stroke="black" stroke-width="2" stroke-linecap="round" stroke-linejoin="round"/>
<path d="M36.6668 40.3333C37.6794 40.3333 38.5002 39.5125 38.5002 38.5C38.5002 37.4874 37.6794 36.6666 36.6668 36.6666C35.6543 36.6666 34.8335 37.4874 34.8335 38.5C34.8335 39.5125 35.6543 40.3333 36.6668 40.3333Z" stroke="black" stroke-width="2" stroke-linecap="round" stroke-linejoin="round"/>
<path d="M1.8335 1.83337H9.16683L14.0802 26.3817C14.2478 27.2258 14.707 27.984 15.3773 28.5236C16.0477 29.0632 16.8864 29.3499 17.7468 29.3334H35.5668C36.4272 29.3499 37.266 29.0632 37.9363 28.5236C38.6067 27.984 39.0659 27.2258 39.2335 26.3817L42.1668 11H11.0002" stroke="black" stroke-width="2" stroke-linecap="round" stroke-linejoin="round"/>
</svg>
