<svg id="cartBlue" width="50" height="50" viewBox="0 0 50 50" fill="none" xmlns="http://www.w3.org/2000/svg">
<path d="M18.7498 45.8334C19.9004 45.8334 20.8332 44.9007 20.8332 43.7501C20.8332 42.5995 19.9004 41.6667 18.7498 41.6667C17.5992 41.6667 16.6665 42.5995 16.6665 43.7501C16.6665 44.9007 17.5992 45.8334 18.7498 45.8334Z" stroke="#6EC8FB" stroke-opacity="0.62" stroke-width="4" stroke-linecap="round" stroke-linejoin="round"/>
<path d="M41.6668 45.8334C42.8174 45.8334 43.7502 44.9007 43.7502 43.7501C43.7502 42.5995 42.8174 41.6667 41.6668 41.6667C40.5162 41.6667 39.5835 42.5995 39.5835 43.7501C39.5835 44.9007 40.5162 45.8334 41.6668 45.8334Z" stroke="#6EC8FB" stroke-opacity="0.62" stroke-width="4" stroke-linecap="round" stroke-linejoin="round"/>
<path d="M2.0835 2.08325H10.4168L16.0002 29.9791C16.1907 30.9382 16.7125 31.7998 17.4742 32.413C18.236 33.0262 19.1891 33.352 20.1668 33.3333H40.4168C41.3945 33.352 42.3477 33.0262 43.1094 32.413C43.8712 31.7998 44.393 30.9382 44.5835 29.9791L47.9168 12.4999H12.5002" stroke="#6EC8FB" stroke-opacity="0.62" stroke-width="4" stroke-linecap="round" stroke-linejoin="round"/>
</svg>
